<svg xmlns="http://www.w3.org/2000/svg" width="15.628" height="12.693" viewBox="0 0 15.628 12.693">
  <path id="Icon_awesome-twitter" data-name="Icon awesome-twitter" d="M14.022,6.544c.01.139.01.278.01.416a9.051,9.051,0,0,1-9.113,9.113A9.051,9.051,0,0,1,0,14.636a6.626,6.626,0,0,0,.773.04A6.415,6.415,0,0,0,4.75,13.307a3.209,3.209,0,0,1-2.995-2.221,4.039,4.039,0,0,0,.6.05,3.388,3.388,0,0,0,.843-.109A3.2,3.2,0,0,1,.635,7.883v-.04a3.226,3.226,0,0,0,1.448.407,3.208,3.208,0,0,1-.992-4.284A9.1,9.1,0,0,0,7.7,7.318a3.616,3.616,0,0,1-.079-.734,3.206,3.206,0,0,1,5.543-2.192,6.306,6.306,0,0,0,2.033-.773,3.194,3.194,0,0,1-1.408,1.765,6.421,6.421,0,0,0,1.844-.5,6.885,6.885,0,0,1-1.606,1.656Z" transform="translate(0 -3.381)" fill="#b40f0a"/>
</svg>
