<svg xmlns="http://www.w3.org/2000/svg" width="17.502" height="17.502" viewBox="0 0 17.502 17.502">
  <g id="Icon_feather-instagram" data-name="Icon feather-instagram" transform="translate(0.5 0.5)">
    <path id="Path_50" data-name="Path 50" d="M7.125,3h8.251A4.125,4.125,0,0,1,19.5,7.125v8.251A4.125,4.125,0,0,1,15.376,19.5H7.125A4.125,4.125,0,0,1,3,15.376V7.125A4.125,4.125,0,0,1,7.125,3Z" transform="translate(-3 -3)" fill="none" stroke="#b40f0a" stroke-linecap="round" stroke-linejoin="round" stroke-width="1"/>
    <path id="Path_51" data-name="Path 51" d="M18.63,14.751a3.3,3.3,0,1,1-2.781-2.781,3.3,3.3,0,0,1,2.781,2.781Z" transform="translate(-7.079 -7.02)" fill="none" stroke="#b40f0a" stroke-linecap="round" stroke-linejoin="round" stroke-width="1"/>
    <path id="Path_52" data-name="Path 52" d="M26.25,9.75h0" transform="translate(-13.461 -6.037)" fill="none" stroke="#b40f0a" stroke-linecap="round" stroke-linejoin="round" stroke-width="1"/>
  </g>
</svg>
